<?xml version="1.0" encoding="utf-8"?>
<!-- Generator: Adobe Illustrator 24.3.0, SVG Export Plug-In . SVG Version: 6.00 Build 0)  -->
<svg version="1.1" id="Capa_1" xmlns="http://www.w3.org/2000/svg" xmlns:xlink="http://www.w3.org/1999/xlink" x="0px" y="0px"
	 viewBox="0 0 80 80" style="enable-background:new 0 0 80 80;" xml:space="preserve">
<style type="text/css">
	.st0{fill:#FFE700;}
	.st1{fill:#E52D1D;}
</style>
<g>
	<path class="st0" d="M79.6,40.2C79.6,18.5,61.8,1,39.8,1C17.8,1-0.1,18.5-0.1,40.2c0,21.6,17.8,39.2,39.9,39.2
		C61.8,79.4,79.6,61.8,79.6,40.2"/>
	<path d="M21.8,37.8c-0.3-1.1-0.8-2.1-1.4-3c-0.7-0.9-1.5-1.6-2.5-2.1c-1-0.5-2.3-0.8-3.6-0.8c-1.2,0-2.4,0.2-3.4,0.6
		c-1,0.4-1.9,1-2.6,1.8C7.4,35.1,6.9,36,6.5,37c-0.4,1-0.6,2.1-0.6,3.3c0,1.2,0.2,2.3,0.6,3.4c0.4,1,0.9,1.9,1.7,2.7
		c0.7,0.7,1.6,1.3,2.6,1.7c1,0.4,2.2,0.6,3.4,0.6c1.8,0,3.4-0.4,4.7-1.2c0.7-0.4,1.2-1,1.7-1.7c0.5-0.7,0.9-1.5,1.2-2.4l0.1-0.3
		c0,0,0.1-0.1-0.1-0.1h-4.2c-0.2,0-0.2,0.1-0.2,0.1l0,0.1c-0.1,0.2-0.2,0.4-0.3,0.6c-0.2,0.2-0.4,0.4-0.7,0.6
		c-0.6,0.4-1.2,0.6-2,0.6c-0.6,0-1.1-0.1-1.5-0.2c-0.4-0.1-0.8-0.3-1-0.6c-0.3-0.3-0.5-0.6-0.7-1.1c-0.1-0.4-0.2-0.8-0.3-1.3h11
		c0.2,0,0.2-0.2,0.2-0.2l0-0.1c0-0.3,0-0.5,0-0.8C22.1,39.6,22,38.7,21.8,37.8 M11.6,36.8c0.2-0.3,0.5-0.5,1-0.7
		c0.4-0.2,0.9-0.3,1.5-0.3c0.5,0,0.9,0.1,1.2,0.2c0.3,0.1,0.6,0.3,0.8,0.5c0.4,0.4,0.7,1,0.9,1.8h-6.1c0-0.2,0.1-0.3,0.1-0.5
		C11.2,37.4,11.3,37.1,11.6,36.8"/>
	<path d="M37.6,48.2l-5.9-8.3l5.3-7.5c0,0,0.1-0.1-0.1-0.1h-5.4c-0.2,0-0.2,0.1-0.2,0.1l-2.4,3.6l-2.4-3.5c0,0-0.1-0.1-0.3-0.1h-5.5
		c-0.2,0-0.1,0.1-0.1,0.1l0.4,0.5l4.9,7l-5.8,8.3c0,0-0.1,0.2,0.1,0.2h5.4c0.2,0,0.3-0.2,0.3-0.2l2.9-4.3l2.9,4.3
		c0,0,0.1,0.2,0.3,0.2h5.5C37.8,48.3,37.6,48.2,37.6,48.2"/>
	<path d="M44.5,32.3h-6.2c-0.2,0-0.2,0.1-0.2,0.1L39,48.1c0,0,0,0.2,0.2,0.2h4.4c0.2,0,0.2-0.2,0.2-0.2l0.9-15.7
		C44.6,32.5,44.6,32.3,44.5,32.3"/>
	<path d="M56.3,35.9c0,0,0.2,0,0.2-0.2v-3.3c0,0,0-0.2-0.2-0.2h-2.9v-4.4c0,0,0-0.2-0.2-0.2h-4.7c-0.2,0-0.2,0.2-0.2,0.2v4.4h-2.4
		c-0.2,0-0.2,0.1-0.2,0.1v3.3c0,0,0,0.2,0.2,0.2h2.4v8.6c0,0.8,0.1,1.5,0.4,2c0.3,0.5,0.7,1,1.2,1.2c0.5,0.3,1.1,0.5,1.7,0.6
		c0.6,0.1,1.3,0.1,1.9,0.1c0.4,0,0.9,0,1.3,0c0.5,0,0.9-0.1,1.2-0.1l0.2,0c0,0,0.2,0,0.2-0.2v-3.7c0-0.2-0.2-0.1-0.2-0.1L56,44.3
		c-0.2,0-0.4,0.1-0.6,0.1c-0.2,0-0.4,0-0.7,0c-0.3,0-0.6,0-0.8-0.1c-0.2,0-0.3-0.1-0.3-0.2c-0.1-0.1-0.1-0.2-0.2-0.3
		c0-0.2-0.1-0.5-0.1-0.8v-7.1H56.3z"/>
	<path d="M73,36.9c-0.4-1-1-1.9-1.7-2.7c-0.7-0.7-1.6-1.3-2.7-1.7c-1-0.4-2.2-0.6-3.5-0.6c-1.3,0-2.4,0.2-3.5,0.6
		c-1,0.4-1.9,1-2.7,1.7c-0.7,0.7-1.3,1.6-1.7,2.7c-0.4,1-0.6,2.2-0.6,3.5c0,1.3,0.2,2.4,0.6,3.4c0.4,1,1,1.9,1.7,2.7
		c0.7,0.7,1.6,1.3,2.7,1.7c1,0.4,2.2,0.6,3.4,0.6c1.3,0,2.4-0.2,3.5-0.6c1-0.4,1.9-1,2.7-1.7c0.7-0.7,1.3-1.6,1.7-2.7
		c0.4-1,0.6-2.2,0.6-3.4C73.6,39.1,73.4,37.9,73,36.9 M66.8,44.4c-0.4,0.2-1,0.4-1.6,0.4c-0.7,0-1.2-0.1-1.6-0.4
		c-0.4-0.2-0.8-0.6-1-1C62.3,43,62.1,42.6,62,42c-0.1-0.6-0.2-1.1-0.2-1.7c0-0.6,0.1-1.2,0.2-1.7c0.1-0.5,0.3-1,0.6-1.4
		c0.3-0.4,0.6-0.7,1-1c0.4-0.2,0.9-0.4,1.6-0.4c0.7,0,1.2,0.1,1.6,0.4c0.4,0.3,0.8,0.6,1,1c0.3,0.4,0.5,0.9,0.6,1.4
		c0.1,0.6,0.2,1.1,0.2,1.7c0,0.6-0.1,1.1-0.2,1.7c-0.1,0.5-0.3,1-0.6,1.4C67.6,43.9,67.2,44.2,66.8,44.4"/>
	<path class="st1" d="M44.4,52.2c0-1.7-1.4-3-3-3c-1.7,0-3,1.3-3,3c0,1.7,1.4,3,3,3C43,55.2,44.4,53.8,44.4,52.2"/>
	<path d="M14.8,27.8l-2.4,2.9c0,0-0.1,0.2,0,0.2h2.8c0.2,0,0.4-0.1,0.4-0.1l4-3c0,0,0.1-0.1,0-0.1h-4.5
		C14.9,27.7,14.8,27.8,14.8,27.8"/>
	<path d="M77.6,33.8c0,0.4-0.1,0.7-0.3,1c-0.2,0.3-0.4,0.5-0.7,0.7c-0.3,0.2-0.6,0.3-1,0.3c-0.4,0-0.7-0.1-1-0.3
		c-0.3-0.2-0.6-0.4-0.7-0.7c-0.2-0.3-0.3-0.6-0.3-1c0-0.4,0.1-0.7,0.3-1c0.2-0.3,0.4-0.5,0.7-0.7c0.3-0.2,0.6-0.3,1-0.3
		c0.4,0,0.7,0.1,1,0.3c0.3,0.2,0.6,0.4,0.7,0.7C77.5,33.2,77.6,33.5,77.6,33.8 M77.2,33.8c0-0.4-0.2-0.8-0.5-1.1
		c-0.3-0.3-0.7-0.5-1.1-0.5c-0.4,0-0.8,0.2-1.1,0.5C74.2,33,74,33.4,74,33.8c0,0.4,0.2,0.8,0.5,1.1c0.3,0.3,0.7,0.5,1.1,0.5
		c0.4,0,0.8-0.2,1.1-0.5C77.1,34.7,77.2,34.3,77.2,33.8 M74.7,32.8h1c0.3,0,0.5,0.1,0.6,0.2c0.1,0.1,0.2,0.2,0.2,0.4
		c0,0.1,0,0.3-0.1,0.4c-0.1,0.1-0.2,0.2-0.4,0.2c0.1,0,0.1,0.1,0.2,0.1c0.1,0,0.1,0.1,0.2,0.2c0,0,0.1,0.2,0.4,0.6h-0.6
		c-0.2-0.4-0.3-0.6-0.4-0.7c-0.1-0.1-0.1-0.1-0.2-0.1c0,0,0,0-0.1,0v0.8h-0.5V32.8z M75.2,33.7h0.2c0.2,0,0.3,0,0.3-0.1
		c0.1,0,0.1-0.1,0.1-0.2c0-0.1,0-0.1-0.1-0.2c-0.1,0-0.2-0.1-0.3-0.1h-0.2V33.7z"/>
</g>
</svg>
